<svg width="40" height="40" viewBox="0 10 100 100">
  <defs>
    <!-- Orange metallic gradient -->
    <linearGradient id="orangeMetal" x1="0%" y1="0%" x2="100%" y2="100%">
      <stop offset="0%" stop-color="#ffe299" />
      <stop offset="100%" stop-color="#ffaa00" />
    </linearGradient>

    <!-- Orange shard glow gradient -->
    <linearGradient id="shardGlow" x1="0%" y1="0%" x2="100%" y2="100%">
      <stop offset="0%" stop-color="#fff5d0aa"/>
      <stop offset="100%" stop-color="#ffcc66aa"/>
    </linearGradient>

    <!-- Rich orange shard gradient -->
    <linearGradient id="shard2300" x1="0%" y1="0%" x2="100%" y2="100%">
      <stop offset="0%" stop-color="#ffefccaa"/>
      <stop offset="100%" stop-color="#ffaa00aa"/>
    </linearGradient>

    <!-- Orange glow filter -->
    <filter id="glow" x="-50%" y="-50%" width="200%" height="200%">
      <feDropShadow dx="0" dy="0" stdDeviation="2.5" flood-color="#ffaa00" flood-opacity="0.95"/>
    </filter>
  </defs>

  <!-- Base large diamond -->
  <path d="M 10 55 L 50 85 L 90 55 L 50 100 Z"
        fill="url(#orangeMetal)" stroke="#cc8800" stroke-width="2" filter="url(#glow)"/>
  <!-- Star/arrow inside -->
  <path d="M 50 90 
           L 90.5 55
           L 60 65 
           L 50 32 
           L 40 65 
           L 09.5 55
           Z"
        fill="url(#orangeMetal)" stroke="#cc8800" stroke-width="1" filter="url(#glow)"/>

  <!-- Top diamond/spark -->
  <polygon points="50,28 53,32 50,36 47,32"
           fill="#fff5cc" stroke="#ffaa00" stroke-width="0.8" filter="url(#glow)" />
  <polygon points="50,86 60,77 50,40 40,77"
           fill="#fff5cc" stroke="#ffaa00" stroke-width="0.8" filter="url(#glow)" />

  <!-- Left shard detail -->
  <polygon points="48,35 39,63 33,61"
           fill="url(#shardGlow)" stroke="#cc8800" stroke-width="0.8" filter="url(#glow)" />
  <!-- New left-adjacent shard -->
  <polygon points="25,37 32,60.6 22,57"
           fill="url(#shard2300)" stroke="#ffaa00" stroke-width="0.8" filter="url(#glow)" />

  <!-- Right shard detail -->
  <polygon points="52,35 61,63 67,61"
           fill="url(#shardGlow)" stroke="#cc8800" stroke-width="0.8" filter="url(#glow)" />
  <!-- New right-adjacent shard -->
  <polygon points="75,37 68,60.6 78,57"
           fill="url(#shard2300)" stroke="#ffaa00" stroke-width="0.8" filter="url(#glow)" />
</svg>


