<svg xmlns="http://www.w3.org/2000/svg" width="400" height="400" viewBox="0 -10 100 120">
  <defs>
    <!-- Main red metal gradient -->
    <linearGradient id="lightRedMetal" x1="0%" y1="0%" x2="100%" y2="100%">
      <stop offset="0%" stop-color="#ffb3b3" />
      <stop offset="100%" stop-color="#ff0000" />
    </linearGradient>
    <!-- Glow red gradient -->
    <linearGradient id="shardGlowRed" x1="0%" y1="0%" x2="100%" y2="100%">
      <stop offset="0%" stop-color="#ffccccaa"/>
      <stop offset="100%" stop-color="#ff9999aa"/>
    </linearGradient>
    <!-- Transparent shard red -->
    <linearGradient id="shard2700" x1="0%" y1="0%" x2="100%" y2="100%">
      <stop offset="0%" stop-color="#ffb3b3aa"/>
      <stop offset="100%" stop-color="#ff0000aa"/>
    </linearGradient>
  </defs>
    <path d="M 10 55 L 50 85 L 90 55 L 50 100 Z"
        fill="url(#lightRedMetal)" stroke="#990000" stroke-width="2" />
  <polygon points="80,35 50,5 20,35 50,0" fill="url(#shardGlowRed)" stroke="#dd5555" stroke-width="1"/>
  <polygon points="70,27.5 50,10 30,27.5 50,5" fill="url(#shardGlowRed)" stroke="#dd5555" stroke-width="1"/>
  <polygon points="18,40 20,53 10,53" fill="url(#shard2700)" stroke="#990000" stroke-width="1"/>
  <polygon points="28,35 25,53 15,53" fill="url(#shard2700)" stroke="#990000" stroke-width="1"/>
  <polygon points="35,32 32,53 22,53" fill="url(#shard2700)" stroke="#990000" stroke-width="1"/>
  <polygon points="46,28 38,53 30,53" fill="url(#lightRedMetal)" stroke="#990000" stroke-width="1"/>
  <polygon points="54,28 62,53 70,53" fill="url(#lightRedMetal)" stroke="#990000" stroke-width="1"/>
  <polygon points="65,32 68,53 78,53" fill="url(#shard2700)" stroke="#990000" stroke-width="1"/>
  <polygon points="72,35 72,53 85,53" fill="url(#shard2700)" stroke="#990000" stroke-width="1"/>
  <polygon points="82,40 80,53 90,53" fill="url(#shard2700)" stroke="#990000" stroke-width="1"/>
  <polygon points="50,90 90.5,55 60,55 50,25 40,55 9.5,55" fill="url(#lightRedMetal)" stroke="#990000" stroke-width="1"/>
  <polygon points="90.5,55 60,65 50,32 40,65 9.5,55 50,90"
fill="url(#lightRedMetal)" stroke="#990000" stroke-width="1" />
  <polygon points="50,20 53,24 50,28 47,24" fill="#ffaaac" stroke="#dd2222" stroke-width="1"/>
  <polygon points="50,86 60,77 50,40 40,77" fill="url(#shardGlowRed)" stroke="#dd4444" stroke-width="1"/>
  
</svg>
